:FULLY-SPECIFIED
:FORCE-ALL-JOINTS-BE-3DOF
:DEGREES
2650
root -1.54775 15.303 -28.6294 1225.58 -78.4478 -148.438
lfemur -51.6065 22.9484 -12.0307
ltibia 73.0886 0 0
lfoot -4.17655 8.78079 0
ltoes -28.9237 0 0
rfemur -37.8828 -18.7136 25.9868
rtibia 67.8197 0 0
rfoot -22.2813 -5.75683 0
rtoes -4.25508 0 0
lowerback 19.1606 3.54309 -0.94735
upperback -0.09429 4.58925 1.62814
thorax -11.0422 2.24023 1.05914
lowerneck -2.70824 8.40522 -1.72509
upperneck 3.93174 11.2307 1.49074
head 1.50757 5.60793 0.969791
lclavicle -3.86416e-15 -6.00458e-15 0
lhumerus 78.5032 -36.9309 34.5782
lradius 107.448 0 0
lwrist -28.4804 0 0
lhand -37.969 394.264 0
lfingers 7.12502 0 0
lthumb -11.0089 -656.055 0
rclavicle -3.86416e-15 -6.00458e-15 0
rhumerus 5.89495 72.6957 -69.49
rradius 95.4522 0 0
rwrist -27.4146 0 0
rhand -4.27203 -390.761 0
rfingers 7.12502 0 0
rthumb 21.488 300.466 0
2651
root -1.6755 15.316 -28.599 1225.21 -77.3173 -148.227
lfemur -50.628 22.9685 -11.2641
ltibia 71.273 0 0
lfoot -2.32081 9.59722 0
ltoes -26.2386 0 0
rfemur -37.5358 -18.7439 25.7046
rtibia 67.8024 0 0
rfoot -22.2895 -6.04838 0
rtoes -4.33466 0 0
lowerback 19.0142 3.63481 -0.824007
upperback -0.132703 4.73348 1.56706
thorax -10.9754 2.30243 0.893889
lowerneck -2.67919 8.43447 -1.5486
upperneck 4.14962 11.2627 1.46517
head 1.59175 5.62433 0.944526
lclavicle -8.3613e-15 -4.72647e-15 0
lhumerus 75.2775 -36.7113 36.0604
lradius 108.354 0 0
lwrist -27.6906 0 0
lhand -38.0037 394.529 0
lfingers 7.12502 0 0
lthumb -11.0422 -655.797 0
rclavicle -8.3613e-15 -4.72647e-15 0
rhumerus 4.0747 71.8614 -70.7044
rradius 96.3806 0 0
rwrist -28.9089 0 0
rhand -4.07034 -390.446 0
rfingers 7.12502 0 0
rthumb 21.6797 300.83 0
2652
root -1.80325 15.329 -28.5686 1225.71 -75.894 -148.944
lfemur -49.483 23.0154 -10.2918
ltibia 68.7423 0 0
lfoot 0.15145 10.6238 0
ltoes -22.7615 0 0
rfemur -37.0276 -18.718 25.3338
rtibia 67.7725 0 0
rfoot -22.347 -6.36727 0
rtoes -4.43536 0 0
lowerback 18.8361 3.77944 -0.644015
upperback -0.177542 4.9571 1.47558
thorax -10.8903 2.3987 0.64466
lowerneck -2.63349 8.51746 -1.30454
upperneck 4.44172 11.3646 1.40404
head 1.70247 5.67528 0.901379
lclavicle -1.41362e-14 -3.03007e-15 0
lhumerus 71.0381 -36.2727 38.0302
lradius 109.428 0 0
lwrist -27.1937 0 0
lhand -38.1409 394.801 0
lfingers 7.12502 0 0
lthumb -11.1743 -655.539 0
rclavicle -1.41362e-14 -3.03007e-15 0
rhumerus 1.75616 71.0596 -72.3017
rradius 97.6851 0 0
rwrist -31.2083 0 0
rhand -3.65058 -390.052 0
rfingers 7.12502 0 0
rthumb 22.0806 301.297 0
2653
root -1.931 15.342 -28.5382 1227.35 -74.1403 -150.871
lfemur -48.1647 23.0961 -9.08619
ltibia 65.3639 0 0
lfoot 3.342 11.8874 0
ltoes -18.3745 0 0
rfemur -36.3257 -18.6181 24.8605
rtibia 67.7272 0 0
rfoot -22.4681 -6.70898 0
rtoes -4.55997 0 0
lowerback 18.6231 3.98862 -0.395989
upperback -0.229044 5.27729 1.34739
thorax -10.7846 2.53641 0.29382
lowerneck -2.5675 8.66876 -0.980599
upperneck 4.82052 11.5555 1.29796
head 1.84393 5.77025 0.836167
lclavicle -2.13717e-14 -8.47167e-16 0
lhumerus 65.6251 -35.5599 40.5674
lradius 110.68 0 0
lwrist -27.1103 0 0
lhand -38.4092 395.069 0
lfingers 7.12502 0 0
lthumb -11.4328 -655.289 0
rclavicle -2.13717e-14 -8.47167e-16 0
rhumerus -1.12909 70.336 -74.3424
rradius 99.4365 0 0
rwrist -34.4857 0 0
rhand -2.9571 -389.572 0
rfingers 7.12502 0 0
rthumb 22.7444 301.88 0
2654
root -2.05875 15.355 -28.5079 1230.39 -72.0187 -154.289
lfemur -46.6662 23.2178 -7.61973
ltibia 61.0052 0 0
lfoot 7.35259 13.4147 0
ltoes -12.9599 0 0
rfemur -35.3975 -18.4263 24.2708
rtibia 67.6635 0 0
rfoot -22.6669 -7.06899 0
rtoes -4.71129 0 0
lowerback 18.3724 4.27402 -0.0685421
upperback -0.287445 5.71124 1.17614
thorax -10.6558 2.72292 -0.176266
lowerneck -2.47756 8.90297 -0.564454
upperneck 5.29852 11.8546 1.13754
head 2.02033 5.91872 0.744705
lclavicle -3.02505e-14 1.89045e-15 0
lhumerus 58.8788 -34.5178 43.7518
lradius 112.121 0 0
lwrist -27.5608 0 0
lhand -38.8373 395.324 0
lfingers 7.12502 0 0
lthumb -11.8456 -655.059 0
rclavicle -3.02505e-14 1.89045e-15 0
rhumerus -4.64944 69.7361 -76.887
rradius 101.706 0 0
rwrist -38.9142 0 0
rhand -1.9343 -388.994 0
rfingers 7.12502 0 0
rthumb 23.7245 302.594 0
2655
root -2.1865 15.3679 -28.4775 1235.11 -69.4915 -159.483
lfemur -44.9807 23.3873 -5.86482
ltibia 55.5337 0 0
lfoot 12.285 15.2324 0
ltoes -6.40007 0 0
rfemur -34.2104 -18.1246 23.5506
rtibia 67.5784 0 0
rfoot -22.9577 -7.44278 0
rtoes -4.89213 0 0
lowerback 18.0807 4.64727 0.34971
upperback -0.352985 6.27615 0.955505
thorax -10.5013 2.96559 -0.783233
lowerneck -2.36001 9.23467 -0.0437954
upperneck 5.8882 12.2813 0.913394
head 2.23586 6.13018 0.622809
lclavicle -4.09553e-14 5.251e-15 0
lhumerus 50.6395 -33.0914 47.6634
lradius 113.759 0 0
lwrist -28.6657 0 0
lhand -39.454 395.557 0
lfingers 7.12502 0 0
lthumb -12.4402 -654.86 0
rclavicle -4.09553e-14 5.251e-15 0
rhumerus -8.8733 69.3057 -79.9961
rradius 104.563 0 0
rwrist -44.6667 0 0
rhand -0.526554 -388.31 0
rfingers 7.12502 0 0
rthumb 25.0743 303.454 0
